<?xml version="1.0" standalone="no"?>
<!DOCTYPE svg PUBLIC "-//W3C//DTD SVG 20010904//EN"
 "http://www.w3.org/TR/2001/REC-SVG-20010904/DTD/svg10.dtd">
<svg version="1.0" xmlns="http://www.w3.org/2000/svg"
 width="512.000000pt" height="512.000000pt" viewBox="0 0 512.000000 512.000000"
 preserveAspectRatio="xMidYMid meet">
<metadata>
Created by potrace 1.14, written by Peter Selinger 2001-2017
</metadata>
<g transform="translate(0.000000,512.000000) scale(0.100000,-0.100000)"
fill="#000000" stroke="none">
<path d="M2672 4712 l0 -297 77 -3 c42 -1 92 -4 111 -7 19 -3 69 -9 110 -15
118 -17 382 -94 418 -122 6 -6 12 -8 12 -5 0 9 129 -57 226 -115 348 -209 616
-524 767 -900 25 -64 48 -127 51 -140 3 -13 14 -54 25 -93 10 -38 22 -86 25
-105 3 -19 8 -44 10 -56 31 -152 26 -469 -10 -638 -9 -39 -17 -80 -19 -90 -49
-232 -204 -542 -375 -750 -46 -55 -215 -220 -275 -267 -77 -61 -245 -172 -245
-162 0 3 -8 -1 -18 -10 -40 -36 -332 -154 -423 -171 -13 -2 -24 -5 -24 -6 0
-1 -7 -3 -15 -5 -8 -1 -40 -7 -70 -14 -87 -17 -110 -20 -200 -28 -134 -11
-305 -7 -390 8 -25 4 -65 10 -89 13 -88 11 -274 66 -396 117 -16 7 -32 13 -35
13 -3 1 -41 20 -85 42 -301 153 -567 399 -741 684 -105 173 -157 293 -208 481
-28 104 -44 179 -52 254 -3 28 -8 61 -10 75 -6 33 -5 275 0 303 3 12 8 50 11
85 9 95 41 252 52 252 3 0 25 -13 50 -30 24 -16 46 -30 48 -30 3 0 31 -17 62
-37 107 -70 140 -79 187 -54 32 18 44 50 51 136 7 102 15 204 20 255 3 25 7
83 10 130 3 47 8 105 10 130 3 25 7 83 10 130 3 47 8 105 10 130 2 25 7 81 10
125 3 44 8 100 10 125 13 147 19 262 17 297 -3 30 -55 80 -90 85 -39 6 -70 -7
-182 -73 -52 -31 -113 -67 -136 -80 -32 -19 -460 -271 -524 -309 -8 -5 -45
-28 -83 -50 -37 -22 -72 -40 -77 -40 -6 0 -10 -4 -10 -10 0 -5 -4 -10 -9 -10
-9 0 -199 -111 -238 -139 -31 -22 -39 -71 -19 -113 12 -25 45 -51 129 -103 61
-38 123 -76 137 -83 14 -6 38 -22 53 -35 l28 -22 -20 -60 c-10 -33 -29 -100
-41 -150 -12 -49 -25 -106 -30 -125 -5 -19 -12 -59 -15 -89 -4 -30 -9 -63 -11
-75 -16 -85 -24 -444 -11 -526 3 -19 9 -62 13 -94 3 -33 7 -64 9 -70 1 -6 5
-29 9 -51 71 -385 226 -734 475 -1069 78 -105 376 -393 470 -456 20 -13 41
-29 76 -58 79 -65 428 -243 550 -282 22 -7 47 -16 56 -20 18 -9 192 -57 234
-64 17 -3 45 -10 63 -15 18 -5 35 -10 37 -10 3 1 22 -2 43 -5 130 -22 248 -30
412 -30 221 0 341 14 584 69 250 56 573 203 800 363 125 88 244 188 341 286
92 94 110 114 180 201 22 28 43 52 47 53 5 2 8 10 8 17 0 7 4 15 8 17 11 4
131 188 170 258 97 178 188 415 232 605 26 111 25 105 39 190 6 39 13 86 16
105 14 80 13 437 -1 555 -36 305 -106 539 -245 820 -61 124 -164 297 -180 303
-5 2 -9 8 -9 13 0 5 -9 19 -19 31 -10 13 -48 59 -83 103 -94 118 -331 351
-397 389 -9 5 -25 18 -36 28 -11 11 -42 33 -70 51 -27 17 -51 35 -53 39 -2 5
-8 8 -14 8 -5 0 -24 10 -41 23 -100 71 -394 205 -555 253 -224 67 -424 101
-638 109 l-92 4 0 -297z"/>
<path d="M3605 3664 c-16 -9 -46 -33 -65 -53 -50 -53 -292 -311 -324 -345 -25
-28 -165 -177 -327 -350 l-67 -71 -52 19 c-61 22 -165 18 -221 -9 l-36 -17
-155 110 c-86 60 -170 118 -187 128 -17 10 -31 22 -31 25 0 4 -8 10 -18 13
-10 4 -28 15 -39 25 -33 31 -96 58 -128 55 -55 -5 -66 -10 -104 -47 -40 -39
-63 -100 -56 -147 2 -14 4 -28 4 -32 2 -14 47 -55 136 -123 50 -38 95 -73 100
-77 48 -38 138 -108 165 -128 18 -14 41 -32 51 -40 9 -8 30 -24 45 -35 44 -31
64 -54 64 -71 0 -30 52 -125 88 -160 21 -20 60 -48 87 -62 42 -22 63 -26 135
-27 72 0 93 4 140 27 98 47 180 165 180 259 0 42 12 63 74 134 15 17 41 47 59
69 48 59 106 128 135 160 14 16 73 86 131 155 142 169 145 172 156 185 11 12
152 180 197 236 15 18 31 48 34 66 8 43 -12 101 -42 120 -35 23 -94 27 -129 8z"/>
</g>
</svg>
