<?xml version="1.0" standalone="no"?>
<!DOCTYPE svg PUBLIC "-//W3C//DTD SVG 20010904//EN"
 "http://www.w3.org/TR/2001/REC-SVG-20010904/DTD/svg10.dtd">
<svg version="1.0" xmlns="http://www.w3.org/2000/svg"
 width="411.000000pt" height="411.000000pt" viewBox="0 0 411.000000 411.000000"
 preserveAspectRatio="xMidYMid meet">
<metadata>
Created by potrace 1.14, written by Peter Selinger 2001-2017
</metadata>
<g transform="translate(0.000000,411.000000) scale(0.100000,-0.100000)"
fill="#000000" stroke="none">
<path d="M520 4086 c-15 -17 -21 -33 -18 -48 4 -18 947 -1402 1294 -1900 l53
-76 -769 -988 c-459 -589 -770 -997 -770 -1010 0 -11 10 -30 23 -42 l23 -22
1570 0 1571 0 21 23 c26 28 28 54 4 84 l-17 23 -1497 2 -1497 3 700 900 c386
495 704 904 708 908 6 6 58 -55 137 -161 9 -12 19 -7 58 30 l47 45 -76 97
c-41 53 -75 98 -75 100 0 3 302 445 672 983 369 538 673 988 676 1001 3 15 -3
31 -18 48 l-23 24 -1387 0 -1387 0 -23 -24z m2633 -134 c-110 -169 -1217
-1772 -1223 -1772 -6 0 -1113 1603 -1223 1772 l-19 28 1242 0 1242 0 -19 -28z"/>
<path d="M1220 3393 c0 -10 155 -247 344 -528 244 -364 348 -510 361 -510 13
0 117 146 361 510 189 281 344 518 344 528 0 16 -40 17 -705 17 -665 0 -705
-1 -705 -17z"/>
<path d="M2460 1860 l0 -180 75 0 75 0 0 180 0 180 -75 0 -75 0 0 -180z"/>
<path d="M3260 1860 l0 -180 75 0 75 0 0 180 0 180 -75 0 -75 0 0 -180z"/>
<path d="M1890 1383 l-1 -498 -526 -275 c-289 -151 -539 -286 -554 -298 -35
-29 -37 -61 -6 -90 l23 -22 681 0 c582 0 686 -2 716 -15 31 -13 130 -15 679
-15 l643 0 50 24 c60 29 107 76 134 136 20 44 21 63 21 685 l0 640 -24 50
c-43 92 -136 154 -228 155 l-48 0 0 -98 c0 -63 -4 -102 -12 -110 -16 -16 -190
-16 -206 0 -8 8 -12 47 -12 110 l0 98 -285 0 -285 0 0 -98 c0 -63 -4 -102 -12
-110 -8 -8 -46 -12 -103 -12 -57 0 -95 4 -103 12 -8 8 -12 47 -12 110 l0 98
-82 0 c-130 -1 -214 -50 -264 -155 l-24 -50 0 -412 c0 -227 -2 -413 -5 -413
-2 0 -20 8 -40 17 l-35 17 0 508 0 508 -40 0 -40 0 0 -497z m1658 215 c17 -17
17 -1219 0 -1236 -17 -17 -1279 -17 -1296 0 -17 17 -17 1219 0 1236 17 17
1279 17 1296 0z"/>
<path d="M2590 1211 c-37 -12 -110 -50 -110 -59 0 -4 10 -20 23 -35 l23 -29
48 26 c91 48 196 25 196 -43 0 -47 -40 -74 -115 -79 l-65 -4 0 -38 0 -37 58
-6 c75 -6 117 -28 131 -67 39 -112 -124 -150 -252 -58 -15 11 -21 9 -42 -17
-13 -16 -23 -34 -22 -39 2 -5 27 -23 57 -40 46 -25 67 -31 140 -34 149 -7 220
43 220 156 0 65 -20 99 -73 122 l-39 18 28 13 c39 19 74 74 74 118 0 86 -75
141 -190 140 -36 0 -76 -4 -90 -8z"/>
<path d="M3075 1189 c-79 -28 -80 -29 -77 -61 1 -17 5 -34 7 -37 5 -4 86 12
118 24 16 7 17 -8 17 -224 l0 -231 45 0 45 0 0 280 0 280 -37 -1 c-21 -1 -74
-15 -118 -30z"/>
</g>
</svg>
