<?xml version="1.0" standalone="no"?>
<!DOCTYPE svg PUBLIC "-//W3C//DTD SVG 20010904//EN"
 "http://www.w3.org/TR/2001/REC-SVG-20010904/DTD/svg10.dtd">
<svg version="1.0" xmlns="http://www.w3.org/2000/svg"
 width="500.000000pt" height="500.000000pt" viewBox="0 0 500.000000 500.000000"
 preserveAspectRatio="xMidYMid meet">
<metadata>
Created by potrace 1.11, written by Peter Selinger 2001-2013
</metadata>
<g transform="translate(0.000000,500.000000) scale(0.100000,-0.100000)"
fill="#000000" stroke="none">
<path d="M1820 4080 l0 -80 44 0 44 0 4 -99 4 -99 60 -88 c34 -49 111 -159
172 -244 l112 -155 0 -61 c0 -59 -2 -64 -68 -160 -172 -249 -287 -404 -302
-404 -4 0 -48 -19 -97 -41 -296 -138 -508 -218 -760 -285 -114 -30 -203 -45
-327 -54 -121 -10 -146 -14 -135 -24 2 -2 127 -37 277 -78 150 -41 274 -78
274 -83 1 -6 -71 -57 -160 -115 l-162 -105 2 -184 3 -184 45 -13 c25 -8 137
-39 250 -70 113 -31 237 -65 275 -75 39 -11 86 -24 105 -29 33 -9 145 -40 220
-61 37 -10 481 -131 565 -154 141 -38 257 -68 316 -82 l66 -15 71 43 c39 24
127 80 194 124 236 153 414 268 498 322 268 173 421 272 555 358 83 53 200
129 260 168 l110 72 3 176 c2 133 -1 179 -10 187 -14 11 -131 44 -623 177
-409 111 -420 114 -480 131 -27 8 -120 32 -205 54 -85 23 -158 44 -162 48 -4
4 -52 70 -107 147 l-101 140 0 65 0 65 146 205 c214 300 197 269 202 383 l4
97 39 0 39 0 0 80 0 80 -630 0 -630 0 0 -80z m1094 -181 l-1 -76 -149 -206
c-198 -274 -196 -271 -192 -379 4 -94 7 -99 106 -231 24 -31 42 -61 40 -66 -2
-4 -48 5 -103 21 -107 31 -163 32 -195 3 -21 -19 -331 -177 -336 -172 -2 2 12
26 31 53 19 27 40 57 47 67 7 10 42 58 77 105 86 117 101 151 101 237 0 63 -4
76 -37 132 -21 35 -81 121 -133 193 -191 262 -180 242 -180 326 l0 74 463 -2
462 -3 -1 -76z m-595 -1184 c3 -3 -23 -34 -57 -68 -34 -34 -62 -66 -62 -70 0
-4 115 -7 255 -7 140 0 255 4 255 8 0 4 -5 13 -12 20 -17 17 -5 15 102 -14 97
-27 124 -39 114 -55 -3 -5 -208 -9 -465 -9 l-459 0 0 45 0 45 118 60 c104 53
122 60 161 55 25 -3 47 -7 50 -10z m-409 -174 c0 -28 -3 -30 -42 -33 l-43 -3
0 -80 0 -80 300 -5 c286 -5 298 -6 265 -21 -142 -66 -227 -101 -302 -125 -49
-15 -88 -31 -88 -34 0 -4 26 -14 59 -23 56 -16 61 -16 147 8 49 13 132 43 184
68 52 24 135 63 184 86 l89 41 208 0 209 0 0 80 c0 90 -3 88 80 64 30 -8 78
-21 105 -28 85 -23 357 -95 414 -111 30 -8 56 -17 58 -19 3 -3 -26 -19 -63
-37 -178 -83 -244 -113 -299 -136 -33 -14 -73 -31 -90 -38 -169 -77 -505 -173
-679 -195 -126 -16 -262 -9 -356 19 -108 32 -394 110 -680 187 -69 19 -174 47
-235 64 -60 16 -137 37 -170 45 -33 9 -63 20 -68 24 -4 4 39 20 95 35 170 47
441 150 633 242 39 18 73 33 78 34 4 0 7 -13 7 -29z m1140 -27 c0 -2 -11 -4
-25 -4 -14 0 -25 4 -25 9 0 4 11 6 25 3 14 -2 25 -6 25 -8z m1130 -169 c0 -37
0 -37 -105 -104 -33 -21 -107 -68 -165 -106 -58 -37 -130 -83 -160 -102 -97
-62 -332 -214 -430 -278 -52 -34 -122 -79 -155 -100 -33 -21 -96 -61 -140 -90
-44 -28 -116 -75 -160 -103 -44 -28 -118 -76 -165 -107 -91 -59 -110 -63 -186
-40 -50 15 -161 46 -249 70 -27 7 -102 27 -165 45 -63 17 -139 38 -168 46 -28
7 -76 20 -105 28 -28 8 -97 26 -152 40 -55 14 -131 35 -170 46 -129 37 -439
122 -490 134 l-50 11 -3 49 -3 48 33 -7 c32 -6 141 -36 203 -55 17 -5 134 -37
260 -71 270 -73 336 -91 430 -117 403 -113 720 -193 741 -188 14 4 59 29 102
57 96 64 317 206 502 324 77 50 202 130 278 179 75 49 173 113 217 141 44 29
125 81 180 117 228 148 259 168 267 168 4 0 8 -16 8 -35z m0 -145 c0 -19 -8
-35 -22 -45 -35 -24 -115 -75 -203 -130 -44 -27 -84 -53 -90 -58 -5 -4 -53
-35 -105 -69 -52 -34 -133 -86 -180 -116 -47 -30 -101 -65 -120 -77 -19 -12
-80 -51 -135 -87 -55 -35 -127 -82 -160 -103 -33 -21 -98 -63 -145 -93 -47
-30 -114 -74 -150 -97 -36 -23 -107 -69 -159 -103 -52 -34 -101 -62 -108 -62
-8 0 -85 20 -171 44 -86 25 -220 61 -297 81 -207 55 -222 59 -445 120 -234 64
-287 79 -367 101 -32 8 -85 22 -118 30 -33 8 -89 23 -125 34 -36 10 -77 21
-92 24 -26 6 -28 10 -28 51 0 25 4 45 8 45 5 0 82 -21 173 -46 90 -25 187 -52
214 -59 176 -47 261 -69 425 -115 102 -28 219 -60 260 -71 88 -24 159 -43 235
-64 242 -67 315 -85 340 -85 13 0 58 24 101 53 44 29 124 81 179 116 55 34
120 76 145 92 54 37 301 196 402 259 39 25 130 84 202 131 72 47 145 94 163
105 31 18 89 56 271 176 47 31 89 55 94 52 4 -3 8 -18 8 -34z m-485 -39 c-9
-9 -164 -109 -550 -356 -82 -53 -239 -154 -349 -224 l-199 -128 -66 19 c-36
10 -127 34 -201 54 -74 20 -225 61 -335 91 -110 30 -234 63 -275 74 -41 11
-99 27 -128 34 -48 14 -76 21 -214 60 -29 8 -96 25 -148 39 -212 54 -231 60
-219 69 2 2 38 25 79 52 41 26 106 68 143 93 77 51 57 50 232 2 44 -12 121
-33 170 -45 50 -13 223 -60 385 -105 l295 -82 130 0 c269 0 461 43 837 186
133 50 246 99 363 155 44 22 65 26 50 12z"/>
<path d="M2147 3697 c9 -15 109 -154 162 -225 18 -25 45 -67 58 -94 l24 -48
63 0 64 0 20 43 c11 23 50 83 87 132 72 98 135 191 135 200 0 3 -140 5 -310 5
-258 0 -310 -2 -303 -13z"/>
<path d="M2424 3266 c-10 -26 1 -51 22 -54 30 -4 48 21 34 47 -12 24 -48 28
-56 7z"/>
<path d="M2424 3116 c-11 -28 1 -51 25 -51 32 0 49 28 32 49 -17 20 -50 21
-57 2z"/>
</g>
</svg>
