<?xml version="1.0" standalone="no"?>
<!DOCTYPE svg PUBLIC "-//W3C//DTD SVG 20010904//EN"
 "http://www.w3.org/TR/2001/REC-SVG-20010904/DTD/svg10.dtd">
<svg version="1.0" xmlns="http://www.w3.org/2000/svg"
 width="426.000000pt" height="426.000000pt" viewBox="0 0 426.000000 426.000000"
 preserveAspectRatio="xMidYMid meet">
<metadata>
Created by potrace 1.14, written by Peter Selinger 2001-2017
</metadata>
<g transform="translate(0.000000,426.000000) scale(0.100000,-0.100000)"
fill="#000000" stroke="none">
<path d="M625 4248 c-60 -33 -92 -93 -81 -153 4 -21 241 -375 666 -995 l660
-962 -742 -951 c-408 -524 -751 -968 -761 -987 -33 -63 -9 -141 56 -180 31
-20 64 -20 1615 -20 1727 0 1614 -4 1661 56 27 35 36 85 21 128 -10 33 -14 35
-38 28 -15 -4 -317 -7 -672 -7 l-645 0 -57 27 c-96 45 -70 65 35 28 56 -20 77
-20 695 -18 636 3 637 3 678 25 53 28 99 74 127 127 l22 41 0 650 0 650 -22
41 c-46 87 -126 142 -219 151 l-53 6 -3 -109 -3 -109 -110 0 -110 0 -3 108 -3
107 -284 0 -284 0 -3 -107 -3 -108 -110 0 -110 0 -3 109 -3 108 -87 -4 c-126
-6 -201 -51 -255 -152 -22 -40 -22 -49 -25 -463 l-3 -423 -39 20 -40 20 0 453
1 452 28 -34 29 -35 20 40 c25 49 95 115 142 134 19 7 37 15 38 16 2 1 -21 33
-50 71 -30 37 -60 77 -67 88 -12 18 51 113 648 983 426 621 663 976 667 997
11 61 -22 122 -83 154 -31 16 -2809 15 -2838 -1z m2509 -280 c-52 -88 -1089
-1586 -1095 -1581 -7 8 -1039 1513 -1073 1566 l-18 27 1096 0 c875 0 1096 -3
1090 -12z m-1124 -2562 l0 -454 -537 -282 c-296 -155 -544 -287 -550 -292 -16
-13 -17 -70 -1 -86 9 -9 -5 -12 -66 -12 l-78 0 34 45 c59 79 1193 1534 1196
1535 1 0 2 -204 2 -454z m1595 -361 l0 -570 -590 0 -590 0 -3 560 c-1 308 0
566 3 573 3 10 127 12 592 10 l588 -3 0 -570z"/>
<path d="M1344 3469 c-7 -13 685 -1049 701 -1049 16 0 708 1036 701 1049 -5 8
-206 11 -701 11 -495 0 -696 -3 -701 -11z"/>
<path d="M2745 1236 c-22 -7 -53 -21 -68 -31 l-28 -18 24 -24 24 -25 39 21
c78 42 164 21 164 -40 0 -46 -35 -69 -104 -69 -46 0 -46 0 -46 -35 0 -33 2
-35 33 -35 43 0 102 -17 116 -34 6 -7 14 -27 17 -44 5 -25 1 -36 -19 -56 -35
-35 -95 -35 -166 0 l-53 27 -21 -21 c-17 -18 -18 -23 -7 -37 40 -48 161 -76
238 -56 65 18 103 57 109 112 7 59 -15 101 -64 124 -33 16 -35 19 -18 25 71
27 94 124 42 178 -47 49 -130 64 -212 38z"/>
<path d="M3220 1235 c-14 -8 -46 -19 -72 -25 -48 -12 -52 -18 -42 -56 6 -22
22 -22 92 0 l22 7 0 -200 0 -201 40 0 40 0 0 245 0 245 -27 0 c-16 -1 -39 -7
-53 -15z"/>
<path d="M2580 1930 l0 -180 75 0 75 0 0 180 0 180 -75 0 -75 0 0 -180z"/>
<path d="M3380 1930 l0 -180 75 0 75 0 0 180 0 180 -75 0 -75 0 0 -180z"/>
</g>
</svg>
